<svg xmlns="http://www.w3.org/2000/svg" width="1198" height="909" version="1.1" enable-background="new 0 0 2000 1500" xml:space="preserve">
 <g>
  <title>Layer 1</title>
  <path fill="#764abc" d="m631.79938,220.32687c-0.39343,0.96918 -0.62549,1.5968 -0.94226,2.17834c-8.90722,16.35279 -11.7793,33.68635 -10.63263,52.31458c1.14478,18.59888 0.38861,37.31476 0.46387,55.97937c0.00732,1.80463 0.00098,3.60925 0.00098,5.65863c-110.77246,0 -221.20118,0 -332.12488,0c-16.26325,-84.30164 -32.539,-168.66791 -48.98792,-253.93201c128.82019,26.58255 257.04651,53.04251 385.65497,79.58136c32.83276,-53.99969 65.69837,-108.05343 98.56409,-162.10714c0.42615,0.21225 0.85229,0.4245 1.27844,0.63678c-31.05102,73.10904 -62.10193,146.21804 -93.27466,219.69009z" id="svg_1"/>
  <path fill="#764abc" d="m521.2215,766.7026c-35.78857,45.56323 -71.34393,90.8573 -106.89929,136.15125c-0.5036,-0.35718 -1.0072,-0.71436 -1.5108,-1.07154c0.91296,-1.38989 1.82885,-2.77783 2.73828,-4.16992c49.2218,-75.34265 98.46179,-150.67346 147.57556,-226.08636c1.50873,-2.31659 2.39001,-5.48456 2.40619,-8.26233c0.17059,-29.32154 0.10565,-58.64435 0.10565,-88.32721c49.73126,0 99.11908,0 148.96661,0c-0.37134,7.96692 -0.7268,15.89392 -1.11499,23.81933c-0.27722,5.65784 -0.79687,11.31263 -0.82129,16.97046c-0.01306,3.04352 -1.25048,4.31989 -3.97448,5.29474c-32.51612,11.63581 -65.0116,23.33051 -97.44672,35.1897c-2.61975,0.95782 -5.31366,2.79871 -7.03241,4.9729c-27.6767,35.0119 -55.2005,70.14459 -82.99231,105.51898z" id="svg_2"/>
  <path fill="#764abc" d="m906.63215,174.28054c17.14636,4.85746 33.89489,9.63163 51.15405,14.5514c-3.9707,30.05774 -7.92493,59.99066 -11.91187,90.17041c-27.86902,-2.71955 -55.32617,-5.39893 -83.45739,-8.14405c0.57824,-10.16034 1.13244,-20.23529 1.72973,-30.30755c0.67029,-11.30439 1.44385,-22.6034 1.99488,-33.9134c0.07348,-1.50613 -0.58607,-3.26284 -1.42688,-4.5679c-41.96729,-65.13357 -83.99109,-130.23071 -126.01368,-195.32879c-0.26623,-0.41245 -0.59778,-0.78278 -0.16259,-2.05414c1.34997,1.27038 2.87121,2.40256 4.02478,3.83154c22.79699,28.24036 45.55041,56.51578 68.31457,84.78263c18.06531,22.43228 36.10474,44.88558 54.26062,67.24447c1.25855,1.54993 3.23547,2.91358 5.1405,3.47693c11.94373,3.5318 23.9618,6.81183 36.35328,10.25845z" id="svg_3"/>
  <path fill="#764abc" d="m832.66694,263.04574c2.88671,7.66657 5.85632,14.89398 8.38256,22.27313c1.18555,3.46302 2.82691,4.75214 6.65735,4.88623c23.30652,0.81586 46.60083,1.97681 69.89881,3.03473c0.47961,0.02179 0.95263,0.19025 1.89709,0.38874c-2.19311,14.26226 -4.3772,28.46472 -6.5885,42.8443c-35.95862,0 -71.51904,0 -107.61255,0c0.54981,-8.4657 1.04785,-16.72724 1.63513,-24.98236c0.44898,-6.31269 1.61377,-12.64191 1.35828,-18.91889c-0.27295,-6.70441 -1.18848,-13.53216 -2.93933,-20.00421c-23.47046,-86.76395 -47.13452,-173.47549 -70.76477,-260.19626c-0.54004,-1.98206 -1.24365,-3.91956 -1.87097,-5.8779c0.54675,-0.19656 1.0935,-0.39316 1.64026,-0.58972c32.73596,85.58841 65.47204,171.17685 98.30664,257.14221z" id="svg_4"/>
  <path fill="#764abc" d="m693.92011,150.28433c11.07202,-50.14588 22.04907,-99.88288 33.02612,-149.61987c0.35913,0.05844 0.71814,0.11685 1.07727,0.17529c-10.77575,111.81897 -21.55163,223.63794 -32.34607,335.65106c-14.21545,0 -28.14001,0 -42.62939,0c13.63818,-62.14191 27.20752,-123.96979 40.87207,-186.20648z" id="svg_5"/>
  <path fill="#764abc" d="m389.32392,858.6672c-18.30933,-94.72986 -36.50714,-189.04645 -54.7815,-283.75946c10.75892,0 21.15088,0 32.24091,0c11.04193,111.00861 22.10419,222.2215 33.16644,333.43451c-0.35077,0.05872 -0.70154,0.11743 -1.05224,0.17615c-3.15412,-16.47925 -6.30817,-32.95862 -9.57361,-49.8512z" id="svg_6"/>
  <path fill="#764abc" d="m407.1363,899.64499c-0.73047,2.12634 -1.30134,3.8933 -1.87214,5.66027c-0.35876,-0.11694 -0.71753,-0.23376 -1.07635,-0.35071c3.00067,-14.12365 6.0036,-28.24694 9.00159,-42.37121c16.50091,-77.74023 32.9964,-155.48181 49.50421,-233.2207c3.59161,-16.91388 7.32385,-33.79883 10.75061,-50.74579c0.61194,-3.02637 1.52362,-4.20081 4.74066,-4.12238c8.8031,0.21485 17.61487,0.07404 27.17822,0.07404c-32.79596,108.59308 -65.43152,216.65509 -98.2268,325.07648z" id="svg_7"/>
  <path fill="#764abc" d="m477.69135,476.20248c-4.46253,-6.62677 -8.75079,-12.93799 -13.3067,-19.643c-7.83673,8.67279 -15.47955,16.95983 -22.85602,25.47753c-1.11487,1.28742 -1.36212,3.64631 -1.37732,5.51471c-0.11078,13.65814 -0.05981,27.31757 -0.05988,40.97663c0,1.64227 0,3.2846 0,5.17706c-4.3374,0 -8.26446,0 -12.51837,0c0,-49.70368 0,-99.43262 0,-149.45648c3.92524,0 7.84278,0 12.39002,0c0,27.58905 0,55.24371 0,84.52087c2.33435,-2.57202 3.62848,-3.94726 4.86737,-5.37054c21.21081,-24.36811 42.53314,-48.64112 63.51434,-73.20545c3.90076,-4.56689 7.75818,-7.28552 13.86042,-6.29168c2.04162,0.33252 4.18292,0.05255 7.44982,0.05255c-19.21722,21.71185 -37.68914,42.58172 -56.41308,63.7362c19.61621,28.52051 39.1665,56.94519 59.33783,86.27277c-5.38434,0 -9.8053,0.26208 -14.16217,-0.15137c-1.40174,-0.13305 -2.96674,-1.82001 -3.89441,-3.17987c-12.27777,-17.99823 -24.45514,-36.06482 -36.83185,-54.42993z" id="svg_8"/>
  <path fill="#764abc" d="m695.87055,516.3384c3.04053,-4.15014 5.82788,-8.0454 8.92126,-12.36834c2.5105,1.67358 5.34375,3.56225 8.10205,5.40094c-4.99047,14.60913 -20.43701,25.72302 -36.86279,26.78729c-30.22412,1.95844 -50.53882,-15.61102 -53.31592,-46.05743c-1.1593,-12.71009 -0.85315,-25.2818 3.45887,-37.46363c7.20202,-20.34582 23.60791,-31.79815 44.84008,-31.40271c20.05713,0.37366 36.2052,12.45789 42.13697,32.77014c2.47632,8.47962 2.96972,17.53827 4.4779,27.0481c-28.35852,0 -55.40661,0 -82.40381,0c-1.6333,18.95258 5.50599,34.18335 18.86621,40.87763c13.15906,6.59332 30.31934,4.38793 41.77918,-5.59199m-21.51502,-84.38519c-26.17578,-3.16931 -41.22644,19.55402 -38.71716,39.46949c22.36145,0 44.71582,0 67.03845,0c1.50843,-20.75458 -9.45483,-36.28864 -28.32129,-39.46949z" id="svg_9"/>
  <path fill="#764abc" d="m270.2768,429.69595c16.75159,-10.70282 34.05505,-12.0766 50.72333,-1.99811c19.7514,11.94263 23.46008,31.76196 22.96704,53.33154c-27.05475,0 -53.81983,0 -80.51142,0c-3.80438,16.36872 5.13489,34.99567 19.70185,41.5149c18.5639,8.30798 34.30279,2.37134 49.18548,-18.67456c2.73218,1.84155 5.46814,3.68573 8.15967,5.49987c-4.94177,14.57862 -20.14581,25.62861 -36.63843,26.77405c-29.38134,2.04053 -49.17126,-14.13733 -53.12738,-43.42639c-1.85211,-13.71234 -1.38031,-27.26819 3.1944,-40.44208c3.12421,-8.9967 8.29224,-16.64099 16.34546,-22.57922m29.91138,42.09833c10.10113,0 20.2022,0 30.58038,0c-0.13263,-15.29914 -3.51911,-28.59058 -17.51001,-36.15552c-12.1272,-6.55707 -24.53424,-5.62689 -35.77771,2.34961c-11.42444,8.10498 -14.75146,20.08441 -14.76813,33.80591c12.55695,0 24.51618,0 37.47547,0z" id="svg_10"/>
  <path fill="#764abc" d="m137.64161,394.14389c0,-6.61786 0,-12.73572 0,-18.99146c4.2163,0 7.96234,0 12.13812,0c0,21.87903 0,43.56763 0,65.55158c0.68719,-0.4159 1.04089,-0.5019 1.14752,-0.71271c8.96313,-17.71851 25.34619,-21.09265 42.46356,-17.58679c14.50025,2.96984 25.32074,14.89679 25.94202,31.54236c0.98621,26.42517 0.26306,52.91418 0.26306,79.69836c-3.57751,0 -7.31299,0 -11.79761,0c0,-1.65753 0.00006,-3.40839 0,-5.15924c-0.00018,-20.49097 0.06159,-40.98218 -0.04907,-61.4726c-0.02417,-4.47174 -0.29712,-9.00647 -1.09045,-13.39746c-2.24927,-12.4494 -9.86267,-20.13501 -22.49188,-20.93896c-6.74189,-0.42914 -14.03553,0.74292 -20.39692,3.06457c-9.45776,3.45166 -13.97741,11.31983 -13.97613,21.53644c0.00305,23.65619 -0.00006,47.31244 -0.00073,70.96863c-0.00007,1.77795 -0.00007,3.55591 -0.00007,5.52276c-4.14495,0 -7.76001,0 -12.15142,0c0,-46.35113 0,-92.73834 0,-139.62548z" id="svg_11"/>
  <path fill="#764abc" d="m799.64569,472.17147c3.13624,0 5.77845,0 9.47034,0c-0.57275,-7.84545 -0.56311,-15.48315 -1.83764,-22.90014c-1.18335,-6.88739 -5.68067,-11.87287 -12.27979,-14.70667c-15.81982,-6.79303 -33.91479,-1.31006 -43.33606,13.15332c-0.35766,0.5492 -0.78186,1.05518 -1.44202,1.93848c-2.4812,-2.04541 -4.85852,-4.00513 -7.58569,-6.25336c5.00269,-10.06488 12.58496,-17.02258 23.33789,-20.17438c10.31104,-3.02215 20.76795,-2.76159 31.04834,0.16913c14.39392,4.10334 23.44824,15.97467 23.63294,31.56549c0.26648,22.46936 0.06823,44.94422 0.06823,67.8891c4.90638,0 9.63233,0 14.66529,0c0,3.8465 0,7.22852 0,10.61042c-20.45801,1.73932 -24.81604,-0.13001 -26.63172,-16.4228c-0.42273,0.29596 -0.89428,0.45545 -1.07715,0.77839c-11.10937,19.61926 -40.90185,25.32391 -58.48706,11.04602c-9.85754,-8.00354 -11.85644,-18.99408 -10.11035,-30.71527c1.76123,-11.82288 9.17139,-19.58014 20.47132,-22.73835c6.96215,-1.9458 14.3673,-2.53216 21.62292,-3.13232c5.95435,-0.49249 11.98132,-0.10468 18.47021,-0.10706m-38.00146,50.77063c10.37402,4.34601 20.82373,3.90448 31.07813,-0.10894c8.14953,-3.18964 14.61547,-8.64026 15.53881,-17.85474c0.76953,-7.67957 0.15772,-15.49744 0.15772,-23.63623c-7.44641,0 -14.57483,-0.24951 -21.67749,0.0719c-6.78186,0.30676 -13.66101,0.61676 -20.271,2.00372c-7.60547,1.59583 -13.64795,6.15723 -14.59314,14.42475c-1.08825,9.51818 -1.55725,19.30255 9.76697,25.09954z" id="svg_12"/>
  <path fill="#764abc" d="m924.28412,467.69174c2.40259,-8.01581 3.69019,-16.12421 7.26929,-23.04804c8.96936,-17.35077 24.35083,-24.40338 43.40039,-23.23895c19.37354,1.18433 32.67346,11.47669 39.54675,29.41364c6.77796,17.68805 6.82947,35.88928 0.88855,53.7929c-7.11291,21.43573 -23.33264,32.30005 -45.90759,31.67554c-21.03772,-0.58203 -36.61804,-12.96558 -42.73865,-34.03534c-3.24902,-11.18426 -3.82019,-22.5838 -2.45874,-34.55975m13.36182,-6.81964c0.01953,12.11664 -0.99548,24.3457 0.30554,36.32318c1.87109,17.22656 14.66211,27.64459 32.04797,28.10638c18.65894,0.49555 31.9452,-8.57477 34.51612,-26.16156c1.85461,-12.68628 1.69592,-25.922 0.48804,-38.729c-1.19934,-12.71686 -8.5625,-22.19275 -21.33472,-26.32807c-21.87244,-7.0819 -40.41028,3.42481 -46.02295,26.78907z" id="svg_13"/>
  <path fill="#764abc" d="m107.55011,395.23343c-14.95965,0 -29.43716,0 -44.46646,0c0,46.31194 0,92.34521 0,138.55859c-4.4902,0 -8.42697,0 -12.79599,0c0,-46.08881 0,-92.01001 0,-138.47131c-16.97293,0 -33.52722,0 -50.28766,0c0,-3.9762 0,-7.41761 0,-11.11799c37.61207,0 75.19361,0 113.09992,0c0,3.42212 0,6.8227 0,11.03071c-1.59125,0 -3.32947,0 -5.54981,0z" id="svg_14"/>
  <path fill="#764abc" d="m1127.65107,527.19137c-4.21668,-3.71783 -8.13099,-7.2442 -12.45911,-11.14331c3.98254,-3.10614 6.84021,-5.33496 9.8429,-7.677c6.20385,7.45105 13.01171,13.65753 22.52673,16.02667c8.25757,2.05615 16.50647,2.23627 24.63208,-0.40906c8.78784,-2.86108 13.44311,-9.55859 13.47949,-18.84185c0.0365,-9.3078 -4.03528,-15.62653 -13.1438,-18.33228c-7.1355,-2.11963 -14.6261,-3.03571 -21.94836,-4.53845c-2.59961,-0.53357 -5.20581,-1.09418 -7.74439,-1.85712c-15.42297,-4.63507 -22.62439,-13.98743 -22.36511,-28.92712c0.25305,-14.57148 8.61402,-24.93353 23.83277,-28.51514c19.56774,-4.60516 36.91625,-0.96246 51.01501,15.25476c-2.67993,2.50006 -5.18457,4.83655 -7.90845,7.37756c-6.19739,-5.80169 -12.31323,-12.05285 -20.96008,-12.67736c-7.4729,-0.53968 -15.32385,-0.32459 -22.55212,1.43194c-7.96058,1.93457 -11.63709,8.75562 -11.66272,17.21997c-0.02649,8.74182 2.97656,13.8385 11.44433,16.68073c6.72144,2.25598 13.86524,3.25531 20.82312,4.80536c3.72864,0.83056 7.54505,1.37689 11.17664,2.51483c14.74865,4.62128 21.7948,13.71356 21.89306,27.89654c0.1034,14.92194 -7.60632,26.36567 -21.87158,30.38178c-16.65405,4.68866 -32.95215,3.90948 -48.05041,-6.67145z" id="svg_15"/>
  <path fill="#764abc" d="m848.78229,423.94296c3.81494,-0.04553 7.14588,0.00793 10.47425,-0.06494c6.57873,-0.14411 8.33459,-1.83789 8.40808,-8.31916c0.08276,-7.29638 0.01904,-14.59442 0.01904,-22.15271c3.68005,0 7.09241,0 10.90662,0c0,9.85206 0,19.76209 0,30.17133c8.42797,0 16.48986,0 24.85412,0c0,3.74359 0,6.99689 0,10.7948c-7.91992,0 -15.96936,0 -24.32666,0c0,29.74469 0,58.95422 0,88.5531c7.36804,0 14.78943,0 22.55359,0c0,3.75562 0,7.13147 0,10.78876c-7.97583,0 -15.93347,0.4566 -23.81335,-0.13043c-7.63684,-0.56891 -11.15857,-5.34058 -11.17652,-13.81946c-0.05615,-26.47168 -0.02295,-52.94361 -0.02441,-79.41541c-0.00012,-1.80359 0,-3.60724 0,-5.8009c-6.52576,0 -12.62744,0 -19.37171,0c0.36597,-3.82068 0.68897,-7.1919 1.49695,-10.60498z" id="svg_16"/>
  <path fill="#764abc" d="m554.78943,476.14352c0,-17.61346 0,-34.72693 0,-52.05225c4.12561,0 7.90528,0 12.23981,0c0,6.24915 0,12.45398 0,18.65882c9.16864,-16.21442 23.44336,-20.32349 40.77759,-18.55744c0,3.74457 0,7.60102 0,11.27985c-6.85132,0.53326 -13.58045,0.39917 -20.02179,1.69513c-13.48981,2.71399 -21.13709,10.19006 -20.81427,25.26636c0.47015,21.96075 0.1206,43.93914 0.12054,65.90997c0,1.79352 0.00006,3.58704 0.00006,5.49951c-4.2146,0 -7.85778,0 -12.30194,0c0,-19.09674 0,-38.14838 0,-57.69995z" id="svg_17"/>
  <path fill="#764abc" d="m1097.59736,435.96548c-7.31763,1.06439 -14.46888,1.21179 -20.92103,3.41077c-9.37011,3.19323 -14.01745,10.50476 -13.95288,20.75439c0.14258,22.63477 0.04371,45.27106 0.04334,67.90674c-0.00012,1.80231 0,3.60455 0,5.66193c-4.09973,0 -7.83533,0 -11.86243,0c0,-36.46216 0,-72.83905 0,-109.51514c3.81775,0 7.70008,0 11.83118,0c0,6.2536 0,12.36658 0,19.92657c5.00317,-7.64636 9.36853,-14.71991 17.18335,-17.0595c7.48132,-2.23975 15.44263,-2.87604 23.6477,-4.29572c0,5.20727 0,8.94971 0,13.2099c-1.92919,0 -3.70983,0 -5.96923,0.00006z" id="svg_18"/>
 </g>

</svg>